<svg width="287" height="281" viewBox="0 0 287 281" fill="none" xmlns="http://www.w3.org/2000/svg">
<path d="M278.313 65.7412C304.569 119.01 269.303 200.437 199.542 247.613C129.782 294.789 51.9442 289.85 25.6874 236.581C-0.569412 183.312 34.6973 101.885 104.458 54.7089C174.218 7.53288 252.056 12.4722 278.313 65.7412Z" fill="#97F2C7"/>
<path fill-rule="evenodd" clip-rule="evenodd" d="M105.027 105.962C97.525 114.278 88.2201 119.908 81.7514 121.293C79.8803 121.694 78.6804 123.561 79.0751 125.46C79.4699 127.358 81.3107 128.575 83.1843 128.174C86.7084 127.419 90.9948 125.603 95.4487 122.887C91.6891 130.609 87.9821 139.789 85.2607 149.96C84.0584 154.45 90.7478 156.292 91.9501 151.803C96.8947 133.326 105.956 117.608 111.258 109.429C112.378 108.127 113.454 106.772 114.474 105.366C116.278 102.88 117.966 100.419 115.881 98.1913C115.368 97.6401 113.37 95.9716 110.982 97.9906C110.348 98.5243 108.07 101.33 105.027 105.962ZM135.105 110.513C134.73 104.952 131.016 103.671 130.963 103.586C128.77 97.8199 115.311 102.525 108.627 124.87C103.603 141.649 111.998 146.351 118.621 142.26C123.548 139.216 131.258 128.585 134.182 117.639C135.587 118.036 137.131 118.212 138.774 118.082C129.825 140.958 144.302 148.209 154.133 136.055C161.941 126.398 168.958 104.849 157.25 101.44C155.705 100.99 154.102 101.68 153.318 103.018C152.802 102.497 152.128 102.161 151.267 102.067C148.705 101.786 146.802 104.438 144.175 108.181C140.67 111.26 137.411 111.599 135.105 110.513ZM125.863 109.117C117.345 114.883 111.917 135.381 114.369 136.326C117.199 137.417 126.166 124.851 128.013 113.704C126.81 112.265 126.101 110.665 125.863 109.117ZM153.911 107.373C151.497 111.637 149.387 111.346 145.793 119.542C144.059 123.496 141.013 135.171 144.485 134.782C151.081 134.044 160.147 109.603 155.337 108.2C154.783 108.038 154.299 107.749 153.911 107.373Z" fill="#1A1A1A"/>
<path fill-rule="evenodd" clip-rule="evenodd" d="M183.329 93.8699C176.632 85.8647 164.776 98.4882 166.792 108.305C168.564 116.952 181.251 116.226 184.5 101.51C186.199 101.777 188.135 101.833 190.247 101.513C183.884 111.014 175.686 125.147 168.711 143.272C167.042 147.605 173.498 150.163 175.168 145.83C193.817 97.3767 212.158 91.8351 205.517 87.8445C203.581 84.3577 200.75 87.5989 200.668 87.6455C200.419 87.8362 191.714 97.6107 183.329 93.8699ZM185.559 133.434C180.673 146.84 193.626 153.976 200.087 137.443C205.49 123.596 191.178 118.016 185.559 133.434ZM194.637 130.872C195.439 132.284 194.316 137.605 191.105 140.32C190.141 137.008 192.883 131.849 194.637 130.872ZM177.663 98.6364C175.126 99.9111 173.225 104.241 173.602 106.834C175.567 106.011 177.856 101.242 177.911 98.8379C177.828 98.7705 177.744 98.703 177.663 98.6364Z" fill="#1A1A1A"/>
<path fill-rule="evenodd" clip-rule="evenodd" d="M107.844 180.312C102.897 180.988 98.55 182.089 95.7293 183.433C91.5824 185.412 94.527 191.776 98.6789 189.797C100.406 188.973 102.793 188.276 105.555 187.744C102.606 197.812 100.021 208.571 98.1602 218.52C97.8032 220.427 99.0392 222.269 100.918 222.63C106.638 223.731 103.747 217.435 113.058 186.787C116.732 186.524 120.598 186.524 124.229 186.847C128.792 187.252 129.404 180.248 124.833 179.841C121.747 179.567 118.517 179.516 115.339 179.649C116.98 174.767 121.734 161.322 126.384 155.275C128.062 153.093 129.968 151.358 130.697 154.542C131.422 157.707 128.142 163.638 126.132 166.631C123.547 170.482 129.284 174.429 131.858 170.591C145.424 150.41 132.018 142.042 124.678 147.147C117.295 152.285 110.658 171.597 107.844 180.312ZM141.389 172.27C140.453 168.984 135.899 168.856 134.788 172.082C129.258 188.137 127.753 194.377 127.35 196.985C126.921 199.757 127.359 201.733 129.877 202.342C132.416 202.955 133.542 201.182 134.137 199.432C137.047 190.874 143.79 173.172 149.41 174.919C150.557 175.275 150.253 177.636 150.064 178.62C149.19 183.186 155.996 184.53 156.87 179.964C159.153 168.053 149.602 164.118 141.389 172.27ZM175.471 186.672C171.04 190.88 165.078 193.365 164.553 187.008C167.481 187.626 170.669 186.22 173.037 184.425C185.258 175.15 177.928 162.116 169.059 166.022C164.966 167.825 160.23 173.915 158.458 180.242C154.046 196.006 167.001 204.342 180.207 191.806C181.338 190.731 182.442 189.532 183.506 188.238C184.962 194.019 188.997 197.916 194.456 198.078C204.907 198.389 217.934 182.63 218.972 173.42C219.494 168.798 212.607 167.998 212.085 172.619C211.647 176.496 207.67 182.434 203.09 186.612C194.243 194.682 188.924 190.663 189.939 181.484C195.262 182.759 201.023 179.05 204.642 174.866C214.832 163.093 207.107 151.492 197.532 156.45C186.121 162.36 186.405 176.29 175.471 186.672ZM171.167 172.602C169.452 173.985 167.34 176.866 166.184 179.328C165.733 180.287 165.556 180.731 166.001 180.774C169.846 181.141 173.154 175.78 172.974 173.172C172.876 171.75 171.873 172.033 171.167 172.602ZM191.752 174.689C196.61 175.473 205.528 164.05 202.019 162.284C198.852 160.69 193.517 170.738 191.752 174.689Z" fill="#1A1A1A"/>
<path d="M85.2766 42.2832C84.0777 42.2355 82.9438 41.5357 82.384 40.3642C76.203 27.4384 71.3434 17.9668 64.5384 5.01081C63.6658 3.35003 64.2861 1.28561 65.9232 0.401081C67.5617 -0.48421 69.5951 0.145114 70.467 1.80589C77.3116 14.8369 82.2003 24.3668 88.4283 37.3902C89.2382 39.0835 88.541 41.1222 86.8718 41.9439C86.3583 42.1961 85.8111 42.3044 85.2766 42.2832Z" fill="black"/>
<path d="M56.9482 60.0058C56.1233 59.9724 55.3089 59.6332 54.6848 58.9879C51.6346 55.8368 48.9383 52.8992 46.0845 49.7882C42.5902 45.9804 38.6293 41.6645 33.0374 35.8757C31.7385 34.5315 31.7602 32.3739 33.0852 31.0562C34.4102 29.7385 36.5369 29.7604 37.8358 31.1047C43.4882 36.9556 47.4797 41.3063 51.0016 45.1436C53.9473 48.3538 56.4913 51.1256 59.478 54.2124C60.7784 55.5551 60.759 57.7126 59.4347 59.0319C58.7464 59.718 57.841 60.0421 56.9482 60.0058Z" fill="black"/>
<path d="M38.1381 86.6259C37.7335 86.61 37.3244 86.5184 36.931 86.345C35.9068 85.8929 11.7318 75.2133 1.81101 69.9834C0.164253 69.1155 -0.476233 67.0579 0.379242 65.388C1.23472 63.7174 3.26367 63.0676 4.90893 63.9355C14.6245 69.0579 39.3623 79.9859 39.6117 80.0957C41.3129 80.8462 42.0915 82.8546 41.3517 84.5805C40.7829 85.9057 39.4825 86.6797 38.1381 86.6259Z" fill="black"/>
</svg>
